{"title":"Sidney Lumet - Dog Day Afternoon (1975)","uid":6281528,"size":1775238794,"categoryP":"video","categoryS":"movies","magnet":"?xt=urn:btih:6fc70990b58ad962694c39bc48acc46ac64f0058&amp;dn=Sidney+Lumet+-+Dog+Day+Afternoon+%281975%29&amp;tr=udp%3A%2F%2Ftracker.openbittorrent.com%3A80&amp;tr=udp%3A%2F%2Fopen.demonii.com%3A1337&amp;tr=udp%3A%2F%2Ftracker.coppersurfer.tk%3A6969&amp;tr=udp%3A%2F%2Fexodus.desync.com%3A6969","seeders":1,"leechers":0,"uploader":"mfccorrea","files":4,"time":1301451711,"description":"Based on a true 1972 story, Sidney Lumet's 1975 drama chronicles a unique bank robbery on a hot summer afternoon in New York City. Shortly before closing time, scheming loser Sonny (Al Pacino) and his slow-witted buddy, Sal (John Cazale), burst into a Brooklyn bank for what should be a run-of-the-mill robbery, but everything goes wrong, beginning with the fact that there is almost no money in the bank. The situation swiftly escalates, as Sonny and Sal take hostages; enough cops to police the tristate area surround the bank; a large Sonny-sympathetic crowd gathers to watch; the media arrive to complete the circus; and police captain Moretti (Charles Durning) tries to negotiate with Sonny while keeping the volatile spectacle under control. When Sonny's lover, Leon (Chris Sarandon), tries to talk Sonny out of the bank, we learn the robbery's motive: to finance Leon's sex-change operation. Sonny demands a plane to escape, but the end is near once menacingly cool FBI agent Sheldon (James Broderick) arrives to take over the negotiations. \n\n   General\n      Complete name : Dog Day Afternoon.avi\n      Format : AVI\n      Format/Info : Audio Video Interleave\n      File size : 1.65 GiB\n      Duration : 2h 4mn\n      Overall bit rate : 1 898 Kbps\n   Video #0\n      ID : 0\n      Format : MPEG-4 Visual\n      Format profile : AdvancedSimple@L5\n      Format settings, BVOP : Yes\n      Format settings, QPel : No\n      Format settings, GMC : No warppoints\n      Format settings, Matrix : Default (H.263)\n      Codec ID : XVID\n      Codec ID/Hint : XviD\n      Duration : 2h 4mn\n      Bit rate : 1 731 Kbps\n      Width : 704 pixels\n      Height : 400 pixels\n      Display aspect ratio : 16:9\n      Frame rate : 23.976 fps\n      Resolution : 24 bits\n      Colorimetry : 4:2:0\n      Scan type : Progressive\n      Bits/(Pixel*Frame) : 0.256\n      Stream size : 1.51 GiB (91%)\n      Writing library : XviD 1.2.1 (UTC 2008-12-04)\n   Audio #1\n      ID : 1\n      Format : AC-3\n      Format/Info : Audio Coding 3\n      Codec ID : 2000\n      Duration : 2h 4mn\n      Bit rate mode : Constant\n      Bit rate : 160 Kbps\n      Channel(s) : 1 channel\n      Channel positions : C\n      Sampling rate : 48.0 KHz\n      Stream size : 143 MiB (8%)\n      Alignment : Aligned on interleaves\n      Interleave, duration : 64 ms (1.53 video frames)\n      Interleave, preload duration : 192 ms\n      Title : chd-dog-day-afternoon-bdrip_Track2_new\n &lt;a href=&quot;\nhttp://www.imdb.com/title/tt0072890/&quot; rel=&quot;nofollow&quot; target=&quot;_NEW&quot;&gt;\nhttp://www.imdb.com/title/tt0072890/&lt;/a&gt;\n\nEnglish audio; English, spanish and Portuguese subtitles\n\nSidney Lumet - Dog Day Afternoon (1975)","torrent":{"xt":"urn:btih:6fc70990b58ad962694c39bc48acc46ac64f0058","amp;dn":"Sidney+Lumet+-+Dog+Day+Afternoon+%281975%29","amp;tr":["udp%3A%2F%2Ftracker.openbittorrent.com%3A80","udp%3A%2F%2Fopen.demonii.com%3A1337","udp%3A%2F%2Ftracker.coppersurfer.tk%3A6969","udp%3A%2F%2Fexodus.desync.com%3A6969"],"infoHash":"6fc70990b58ad962694c39bc48acc46ac64f0058","infoHashBuffer":{"type":"Buffer","data":[111,199,9,144,181,138,217,98,105,76,57,188,72,172,196,106,198,79,0,88]},"announce":[],"urlList":[]}}